<?xml version="1.0" encoding="utf-8"?>
<!-- Generator: Adobe Illustrator 15.0.0, SVG Export Plug-In . SVG Version: 6.00 Build 0)  -->
<!DOCTYPE svg PUBLIC "-//W3C//DTD SVG 1.1//EN" "http://www.w3.org/Graphics/SVG/1.1/DTD/svg11.dtd">
<svg version="1.1" xmlns="http://www.w3.org/2000/svg" xmlns:xlink="http://www.w3.org/1999/xlink" x="0px" y="0px" width="612px"
	 height="792px" viewBox="0 0 612 792" enable-background="new 0 0 612 792" xml:space="preserve">
<g id="Layer_1">
	<image overflow="visible" width="1592" height="1366" xlink:href="CDF0A47.jpg"  transform="matrix(1 0 0 1 -490 -287)">
	</image>
</g>
<g id="Navigation">
	<path fill="none" stroke="#000000" stroke-width="5" d="M-62.891,311.345"/>
	<polyline fill="none" stroke="#000000" stroke-width="5" points="97.602,745.573 97.602,558.082 97.602,311.345 22.605,311.345 
		-56.891,311.345 	"/>
	<polyline fill="none" stroke="#000000" stroke-width="5" points="505.581,384.091 505.581,238.598 367.588,238.598 
		367.588,384.091 262.593,384.091 262.593,412.59 220.595,412.59 	"/>
	<polyline fill="none" stroke="#000000" stroke-width="5" points="22.605,311.345 22.605,229.599 114.101,229.599 	"/>
	<polyline fill="none" stroke="#000000" stroke-width="5" points="22.605,229.599 20.355,40.608 367.588,40.608 367.588,238.598 	
		"/>
	<polyline fill="none" stroke="#000000" stroke-width="5" points="20.355,40.608 20.355,0 -218.883,0 -226.382,558.082 
		97.602,558.082 363.088,558.082 691.571,558.082 691.571,384.091 501.081,384.091 367.588,384.091 363.088,558.082 
		363.088,718.574 	"/>
	<polyline fill="none" stroke="#000000" stroke-width="5" points="691.571,384.091 672.072,301.595 660.073,40.608 367.588,40.608 
		363.088,-130.383 	"/>
</g>
<g id="Scale_1m">
	<line fill="none" stroke="#000000" stroke-width="5" x1="610.673" y1="909" x2="654.863" y2="909"/>
</g>
<g id="Names">
	<text transform="matrix(1 0 0 1 159.0981 30.1084)" fill="#ED1F24" font-family="'MyriadPro-Regular'" font-size="36">Porch 2</text>
	<text transform="matrix(1 0 0 1 232.5938 537.084)" fill="#ED1F24" font-family="'MyriadPro-Regular'" font-size="36">Porch 1</text>
	<text transform="matrix(1 0 0 1 -95.3955 199.5947)" fill="#ED1F24" font-family="'MyriadPro-Regular'" font-size="36">Dining room</text>
	<text transform="matrix(1 0 0 1 -111.8945 369.0864)" fill="#ED1F24" font-family="'MyriadPro-Regular'" font-size="36">Bed Room 4</text>
	<text transform="matrix(1 0 0 1 47.0972 369.0864)" fill="#ED1F24" font-family="'MyriadPro-Regular'" font-size="36">Bed Room 1</text>
	<text transform="matrix(1 0 0 1 86.0952 199.5947)" fill="#ED1F24" font-family="'MyriadPro-Regular'" font-size="36">Kitchen 1</text>
	<text transform="matrix(1 0 0 1 264.5864 199.5947)" fill="#ED1F24" font-family="'MyriadPro-Regular'" font-size="36">Kitchen 2</text>
	<text transform="matrix(1 0 0 1 177.5908 427.584)" fill="#ED1F24" font-family="'MyriadPro-Regular'" font-size="36">Closet</text>
	<text transform="matrix(1 0 0 1 281.0854 369.0864)" fill="#ED1F24" font-family="'MyriadPro-Regular'" font-size="36">Living Room 1</text>
	<text transform="matrix(1 0 0 1 449.0771 420.084)" fill="#ED1F24" font-family="'MyriadPro-Regular'" font-size="36">Bed Room 2</text>
	<text transform="matrix(1 0 0 1 449.0771 199.5947)" fill="#ED1F24" font-family="'MyriadPro-Regular'" font-size="36">Bed Room 3</text>
	<text transform="matrix(1 0 0 1 632.7676 354.0874)" fill="#ED1F24" font-family="'MyriadPro-Regular'" font-size="36">Living Room 2</text>
	<text transform="matrix(1 0 0 1 581.0889 85.6011)" fill="#ED1F24" font-family="'MyriadPro-Regular'" font-size="36">Kitchen 3</text>
</g>
</svg>
