<?xml version="1.0" encoding="utf-8"?>
<!-- Generator: Adobe Illustrator 15.0.0, SVG Export Plug-In . SVG Version: 6.00 Build 0)  -->
<!DOCTYPE svg PUBLIC "-//W3C//DTD SVG 1.1//EN" "http://www.w3.org/Graphics/SVG/1.1/DTD/svg11.dtd">
<svg version="1.1" xmlns="http://www.w3.org/2000/svg" xmlns:xlink="http://www.w3.org/1999/xlink" x="0px" y="0px" width="256px"
	 height="256px" viewBox="0 0 256 256" enable-background="new 0 0 256 256" xml:space="preserve">
<g id="Layer_1">
	
		<image overflow="visible" width="2592" height="1456" xlink:href="mapets-a3.jpg"  transform="matrix(0.24 0 0 0.24 -183 -47)">
	</image>
</g>
<g id="Landmarks" display="none">
	<text transform="matrix(1 0 0 1 64 -1)" display="inline" font-family="'MyriadPro-Regular'" font-size="6">300</text>
	<text transform="matrix(1 0 0 1 25.5 7.25)" display="inline" font-family="'MyriadPro-Regular'" font-size="6">370</text>
	<text transform="matrix(1 0 0 1 -11.5 14.5)" display="inline" font-family="'MyriadPro-Regular'" font-size="6">311</text>
	<text transform="matrix(1 0 0 1 -15 21.75)" display="inline" font-family="'MyriadPro-Regular'" font-size="6">322</text>
	<text transform="matrix(1 0 0 1 -14.5 29.75)" display="inline" font-family="'MyriadPro-Regular'" font-size="6">324</text>
	<text transform="matrix(1 0 0 1 -1.25 63.5)" display="inline" font-family="'MyriadPro-Regular'" font-size="6">326</text>
	<text transform="matrix(1 0 0 1 18 63.5)" display="inline" font-family="'MyriadPro-Regular'" font-size="6">330</text>
	<text transform="matrix(1 0 0 1 11 19.75)" display="inline" font-family="'MyriadPro-Regular'" font-size="6">348</text>
	<text transform="matrix(1 0 0 1 19 20.25)" display="inline" font-family="'MyriadPro-Regular'" font-size="6">346</text>
	<text transform="matrix(1 0 0 1 37.25 63.5)" display="inline" font-family="'MyriadPro-Regular'" font-size="6">332</text>
	<text transform="matrix(1 0 0 1 53.25 63.75)" display="inline" font-family="'MyriadPro-Regular'" font-size="6">334</text>
	<text transform="matrix(1 0 0 1 65 63.25)" display="inline" font-family="'MyriadPro-Regular'" font-size="6">336</text>
	<text transform="matrix(1 0 0 1 68.25 20.25)" display="inline" font-family="'MyriadPro-Regular'" font-size="6">338</text>
	<text transform="matrix(1 0 0 1 49.25 19.25)" display="inline" font-family="'MyriadPro-Regular'" font-size="6">340</text>
	<text transform="matrix(1 0 0 1 40.5 18.75)" display="inline" font-family="'MyriadPro-Regular'" font-size="6">342</text>
	<text transform="matrix(1 0 0 1 31.25 19.25)" display="inline" font-family="'MyriadPro-Regular'" font-size="6">344</text>
	<text transform="matrix(1 0 0 1 16 78.75)" display="inline" font-family="'MyriadPro-Regular'" font-size="6">250</text>
	<text transform="matrix(1 0 0 1 24.25 72)" display="inline" font-family="'MyriadPro-Regular'" font-size="6">872</text>
	<text transform="matrix(1 0 0 1 23.75 80.5)" display="inline" font-family="'MyriadPro-Regular'" font-size="6">870</text>
	<text transform="matrix(1 0 0 1 25.5 94)" display="inline" font-family="'MyriadPro-Regular'" font-size="6">868</text>
	<text transform="matrix(1 0 0 1 25.25 100)" display="inline" font-family="'MyriadPro-Regular'" font-size="6">866</text>
	<text transform="matrix(1 0 0 1 15.5 108.25)" display="inline" font-family="'MyriadPro-Regular'" font-size="6">220</text>
	<text transform="matrix(1 0 0 1 15.5 126.75)" display="inline" font-family="'MyriadPro-Regular'" font-size="6">202</text>
	<text transform="matrix(1 0 0 1 72.25 70.75)" display="inline" font-family="'MyriadPro-Regular'" font-size="6">880</text>
	<text transform="matrix(1 0 0 1 72.25 77)" display="inline" font-family="'MyriadPro-Regular'" font-size="6">882</text>
	<text transform="matrix(1 0 0 1 71.5 84.5)" display="inline" font-family="'MyriadPro-Regular'" font-size="6">884</text>
	<text transform="matrix(1 0 0 1 69.75 103.75)" display="inline" font-family="'MyriadPro-Regular'" font-size="6">886</text>
	<text transform="matrix(1 0 0 1 69.25 133)" display="inline" font-family="'MyriadPro-Regular'" font-size="6">888</text>
	<text transform="matrix(1 0 0 1 70.25 140)" display="inline" font-family="'MyriadPro-Regular'" font-size="6">890</text>
	<text transform="matrix(1 0 0 1 18 160.75)" display="inline" font-family="'MyriadPro-Regular'" font-size="6">190</text>
	<text transform="matrix(1 0 0 1 17 172.75)" display="inline" font-family="'MyriadPro-Regular'" font-size="6">170</text>
	<text transform="matrix(1 0 0 1 19 196.5)" display="inline" font-family="'MyriadPro-Regular'" font-size="6">140</text>
	<text transform="matrix(1 0 0 1 20.25 210.25)" display="inline" font-family="'MyriadPro-Regular'" font-size="6">136</text>
	<text transform="matrix(1 0 0 1 25.5 210.25)" display="inline" font-family="'MyriadPro-Regular'" font-size="6">864</text>
	<text transform="matrix(1 0 0 1 25 223)" display="inline" font-family="'MyriadPro-Regular'" font-size="6">862</text>
	<text transform="matrix(1 0 0 1 25.75 231)" display="inline" font-family="'MyriadPro-Regular'" font-size="6">860</text>
	<text transform="matrix(1 0 0 1 18 227.5)" display="inline" font-family="'MyriadPro-Regular'" font-size="6">120</text>
	<text transform="matrix(1 0 0 1 26.75 246.75)" display="inline" font-family="'MyriadPro-Regular'" font-size="6">820</text>
	<text transform="matrix(1 0 0 1 37.5 233.5)" display="inline" font-family="'MyriadPro-Regular'" font-size="6">852</text>
	<text transform="matrix(1 0 0 1 72 232.25)" display="inline" font-family="'MyriadPro-Regular'" font-size="6">880</text>
	<text transform="matrix(1 0 0 1 71.5 214)" display="inline" font-family="'MyriadPro-Regular'" font-size="6">892</text>
	<text transform="matrix(1 0 0 1 46.5 245.5)" display="inline" font-family="'MyriadPro-Regular'" font-size="6">830</text>
	<text transform="matrix(1 0 0 1 51.25 245.5)" display="inline" font-family="'MyriadPro-Regular'" font-size="6">832</text>
	<text transform="matrix(1 0 0 1 72 248)" display="inline" font-family="'MyriadPro-Regular'" font-size="6">850</text>
	<text transform="matrix(1 0 0 1 62.5 264.75)" display="inline" font-family="'MyriadPro-Regular'" font-size="6">853</text>
	<text transform="matrix(1 0 0 1 82.25 259)" display="inline" font-family="'MyriadPro-Regular'" font-size="6">700</text>
	<text transform="matrix(1 0 0 1 85.25 248.75)" display="inline" font-family="'MyriadPro-Regular'" font-size="6">740</text>
	<text transform="matrix(1 0 0 1 82.75 225.75)" display="inline" font-family="'MyriadPro-Regular'" font-size="6">740</text>
	<text transform="matrix(1 0 0 1 97.5 188.5)" display="inline" font-family="'MyriadPro-Regular'" font-size="6">750</text>
	<text transform="matrix(1 0 0 1 97.5 176)" display="inline" font-family="'MyriadPro-Regular'" font-size="6">500</text>
	<text transform="matrix(1 0 0 1 83 139.25)" display="inline" font-family="'MyriadPro-Regular'" font-size="6">502</text>
	<text transform="matrix(1 0 0 1 126.75 188)" display="inline" font-family="'MyriadPro-Regular'" font-size="6">754</text>
	<text transform="matrix(1 0 0 1 136 198.75)" display="inline" font-family="'MyriadPro-Regular'" font-size="6">726</text>
	<text transform="matrix(1 0 0 1 128.5 204.75)" display="inline" font-family="'MyriadPro-Regular'" font-size="6">728</text>
	<text transform="matrix(1 0 0 1 131.75 209.75)" display="inline" font-family="'MyriadPro-Regular'" font-size="6">062</text>
	<text transform="matrix(1 0 0 1 82.5 16.75)" display="inline" font-family="'MyriadPro-Regular'" font-size="6">412</text>
	<text transform="matrix(1 0 0 1 126.75 22.25)" display="inline" font-family="'MyriadPro-Regular'" font-size="6">420</text>
	<text transform="matrix(1 0 0 1 119.75 32.5)" display="inline" font-family="'MyriadPro-Regular'" font-size="6">402</text>
	<text transform="matrix(1 0 0 1 119.5 45.25)" display="inline" font-family="'MyriadPro-Regular'" font-size="6">405</text>
	<text transform="matrix(1 0 0 1 106.5 62)" display="inline" font-family="'MyriadPro-Regular'" font-size="6">403</text>
	<text transform="matrix(1 0 0 1 125.75 49.25)" display="inline" font-family="'MyriadPro-Regular'" font-size="6">430</text>
	<text transform="matrix(1 0 0 1 153 -13.5)" display="inline" font-family="'MyriadPro-Regular'" font-size="6">090</text>
	<text transform="matrix(1 0 0 1 158 -3.25)" display="inline" font-family="'MyriadPro-Regular'" font-size="6">434</text>
	<text transform="matrix(1 0 0 1 189.75 2)" display="inline" font-family="'MyriadPro-Regular'" font-size="6">480</text>
	<text transform="matrix(1 0 0 1 189.25 16.5)" display="inline" font-family="'MyriadPro-Regular'" font-size="6">456</text>
	<text transform="matrix(1 0 0 1 183.75 16.25)" display="inline" font-family="'MyriadPro-Regular'" font-size="6">438</text>
	<text transform="matrix(1 0 0 1 188.75 37.25)" display="inline" font-family="'MyriadPro-Regular'" font-size="6">460</text>
	<text transform="matrix(1 0 0 1 182.75 35.75)" display="inline" font-family="'MyriadPro-Regular'" font-size="6">440</text>
	<text transform="matrix(1 0 0 1 194 65.5)" display="inline" font-family="'MyriadPro-Regular'" font-size="6">464</text>
	<text transform="matrix(1 0 0 1 181.75 64.25)" display="inline" font-family="'MyriadPro-Regular'" font-size="6">446</text>
	<text transform="matrix(1 0 0 1 210.5 65.5)" display="inline" font-family="'MyriadPro-Regular'" font-size="6">466</text>
	<text transform="matrix(1 0 0 1 230.25 71.5)" display="inline" font-family="'MyriadPro-Regular'" font-size="6">085</text>
	<text transform="matrix(1 0 0 1 174.75 78.25)" display="inline" font-family="'MyriadPro-Regular'" font-size="6">550</text>
	<text transform="matrix(1 0 0 1 175 83.75)" display="inline" font-family="'MyriadPro-Regular'" font-size="6">551</text>
	<text transform="matrix(1 0 0 1 167.5 85.5)" display="inline" font-family="'MyriadPro-Regular'" font-size="6">549</text>
	<text transform="matrix(1 0 0 1 166.75 91.25)" display="inline" font-family="'MyriadPro-Regular'" font-size="6">544</text>
	<text transform="matrix(1 0 0 1 173.5 133.25)" display="inline" font-family="'MyriadPro-Regular'" font-size="6">552</text>
	<text transform="matrix(1 0 0 1 174.5 143.25)" display="inline" font-family="'MyriadPro-Regular'" font-size="6">554</text>
	<text transform="matrix(1 0 0 1 161.5 150.5)" display="inline" font-family="'MyriadPro-Regular'" font-size="6">543</text>
	<text transform="matrix(1 0 0 1 156 151.75)" display="inline" font-family="'MyriadPro-Regular'" font-size="6">542</text>
	<text transform="matrix(1 0 0 1 165.5 156.75)" display="inline" font-family="'MyriadPro-Regular'" font-size="6">541</text>
	<text transform="matrix(1 0 0 1 165.5 164.75)" display="inline" font-family="'MyriadPro-Regular'" font-size="6">540</text>
	<text transform="matrix(1 0 0 1 176.25 176.75)" display="inline" font-family="'MyriadPro-Regular'" font-size="6">560</text>
	<text transform="matrix(1 0 0 1 199.75 176.75)" display="inline" font-family="'MyriadPro-Regular'" font-size="6">564</text>
	<text transform="matrix(1 0 0 1 200.25 150)" display="inline" font-family="'MyriadPro-Regular'" font-size="6">568</text>
	<text transform="matrix(1 0 0 1 208.25 105.5)" display="inline" font-family="'MyriadPro-Regular'" font-size="6">572</text>
	<text transform="matrix(1 0 0 1 207.5 111.25)" display="inline" font-family="'MyriadPro-Regular'" font-size="6">570</text>
	<text transform="matrix(1 0 0 1 207.25 142.5)" display="inline" font-family="'MyriadPro-Regular'" font-size="6">569</text>
	<text transform="matrix(1 0 0 1 206.75 162.5)" display="inline" font-family="'MyriadPro-Regular'" font-size="6">566</text>
	<text transform="matrix(1 0 0 1 211 177.75)" display="inline" font-family="'MyriadPro-Regular'" font-size="6">580</text>
	<text transform="matrix(1 0 0 1 232 184)" display="inline" font-family="'MyriadPro-Regular'" font-size="6">080</text>
	<text transform="matrix(1 0 0 1 207.25 199.25)" display="inline" font-family="'MyriadPro-Regular'" font-size="6">614</text>
	<text transform="matrix(1 0 0 1 208 204.75)" display="inline" font-family="'MyriadPro-Regular'" font-size="6">612</text>
	<text transform="matrix(1 0 0 1 201 201.75)" display="inline" font-family="'MyriadPro-Regular'" font-size="6">613</text>
	<text transform="matrix(1 0 0 1 172.25 191)" display="inline" font-family="'MyriadPro-Regular'" font-size="6">600</text>
	<text transform="matrix(1 0 0 1 172 233.25)" display="inline" font-family="'MyriadPro-Regular'" font-size="6">602</text>
	<text transform="matrix(1 0 0 1 171.75 248.75)" display="inline" font-family="'MyriadPro-Regular'" font-size="6">604</text>
	<text transform="matrix(1 0 0 1 182.25 259.75)" display="inline" font-family="'MyriadPro-Regular'" font-size="6">608</text>
	<text transform="matrix(1 0 0 1 176.25 266.75)" display="inline" font-family="'MyriadPro-Regular'" font-size="6">070</text>
</g>
<g id="Navigation">
	<line fill="none" stroke="#FF0000" x1="78.667" y1="-9.667" x2="79" y2="12.667"/>
	<line fill="none" stroke="#FF0000" x1="79" y1="12.667" x2="-11.5" y2="12.667"/>
	<line fill="none" stroke="#FF0000" x1="-11.5" y1="12.667" x2="-11.5" y2="62"/>
	<line fill="none" stroke="#FF0000" x1="-11.5" y1="62" x2="21" y2="62"/>
	<line fill="none" stroke="#FF0000" x1="21" y1="62" x2="78.667" y2="62"/>
	<line fill="none" stroke="#FF0000" x1="21" y1="62" x2="21" y2="237"/>
	<line fill="none" stroke="#FF0000" x1="21" y1="237" x2="78.667" y2="237"/>
	<line fill="none" stroke="#FF0000" x1="78.667" y1="237" x2="79" y2="258"/>
	<line fill="none" stroke="#FF0000" x1="79" y1="258" x2="66.333" y2="258"/>
	<line fill="none" stroke="#FF0000" x1="78.941" y1="21.337" x2="123.333" y2="21.667"/>
	<line fill="none" stroke="#FF0000" x1="123.333" y1="21.667" x2="123" y2="62"/>
	<line fill="none" stroke="#FF0000" x1="79" y1="12.667" x2="78.941" y2="21.337"/>
	<line fill="none" stroke="#FF0000" x1="78.941" y1="21.337" x2="78.667" y2="62"/>
	<line fill="none" stroke="#FF0000" x1="78.667" y1="62" x2="123" y2="62"/>
	<line fill="none" stroke="#FF0000" x1="123" y1="62" x2="136" y2="62"/>
	<line fill="none" stroke="#FF0000" x1="136" y1="62" x2="136" y2="70.333"/>
	<line fill="none" stroke="#FF0000" x1="136" y1="70.333" x2="170.667" y2="70.333"/>
	<line fill="none" stroke="#FF0000" x1="170.667" y1="70.333" x2="170.667" y2="181.667"/>
	<line fill="none" stroke="#FF0000" x1="78.667" y1="62" x2="78.667" y2="181.667"/>
	<line fill="none" stroke="#FF0000" x1="78.667" y1="181.667" x2="78.667" y2="237"/>
	<line fill="none" stroke="#FF0000" x1="170.667" y1="181.667" x2="170.667" y2="258"/>
	<line fill="none" stroke="#FF0000" x1="170.667" y1="258" x2="180" y2="258"/>
	<line fill="none" stroke="#FF0000" x1="170.667" y1="181.667" x2="203.667" y2="181.667"/>
	<line fill="none" stroke="#FF0000" x1="203.667" y1="181.667" x2="203.667" y2="70.333"/>
	<line fill="none" stroke="#FF0000" x1="170.667" y1="70.333" x2="183.667" y2="70.333"/>
	<line fill="none" stroke="#FF0000" x1="183.667" y1="70.333" x2="203.667" y2="70.333"/>
	<line fill="none" stroke="#FF0000" x1="183.667" y1="70.333" x2="183.667" y2="-11.333"/>
	<line fill="none" stroke="#FF0000" x1="183.667" y1="-11.333" x2="145.334" y2="-11.333"/>
	<line fill="none" stroke="#FF0000" x1="203.667" y1="70.333" x2="227" y2="70.333"/>
	<line fill="none" stroke="#FF0000" x1="203.667" y1="181.667" x2="229.667" y2="181.667"/>
	<line fill="none" stroke="#FF0000" x1="170.667" y1="181.667" x2="133.5" y2="181.667"/>
	<line fill="none" stroke="#FF0000" x1="133.5" y1="181.667" x2="133.5" y2="203.375"/>
	<line fill="none" stroke="#FF0000" x1="133.5" y1="181.667" x2="78.667" y2="181.667"/>
</g>
<g id="Scale_1m">
	<line fill="none" stroke="#32FF00" x1="4.333" y1="74.333" x2="6.417" y2="74.333"/>
</g>
</svg>
