<?xml version="1.0" encoding="utf-8"?>
<!-- Generator: Adobe Illustrator 15.0.0, SVG Export Plug-In . SVG Version: 6.00 Build 0)  -->
<!DOCTYPE svg PUBLIC "-//W3C//DTD SVG 1.1//EN" "http://www.w3.org/Graphics/SVG/1.1/DTD/svg11.dtd">
<svg version="1.1" xmlns="http://www.w3.org/2000/svg" xmlns:xlink="http://www.w3.org/1999/xlink" x="0px" y="0px" width="400px"
	 height="240px" viewBox="0 0 400 240" enable-background="new 0 0 400 240" xml:space="preserve">
<g id="Layer_1">
	<image overflow="visible" width="1530" height="1262" xlink:href="plan-ets-1a.jpg"  transform="matrix(0.24 0 0 0.24 16 -31)">
	</image>
</g>
<g id="Navigation">
	<line fill="none" stroke="#000000" stroke-miterlimit="10" x1="63" y1="2.333" x2="63" y2="78"/>
	<line fill="none" stroke="#000000" stroke-miterlimit="10" x1="63" y1="2.333" x2="147.333" y2="0"/>
	<line fill="none" stroke="#000000" stroke-miterlimit="10" x1="147.333" y1="0" x2="147.333" y2="61.333"/>
	<line fill="none" stroke="#000000" stroke-miterlimit="10" x1="147.333" y1="61.333" x2="256" y2="64.667"/>
	<line fill="none" stroke="#000000" stroke-miterlimit="10" x1="256" y1="64.667" x2="256" y2="99"/>
	<line fill="none" stroke="#000000" stroke-miterlimit="10" x1="256" y1="99" x2="327.667" y2="100.667"/>
	<line fill="none" stroke="#000000" stroke-miterlimit="10" x1="256" y1="99" x2="253" y2="151.667"/>
	<line fill="none" stroke="#000000" stroke-miterlimit="10" x1="253" y1="151.667" x2="307" y2="151.667"/>
	<line fill="none" stroke="#000000" stroke-miterlimit="10" x1="307" y1="151.667" x2="319" y2="151.667"/>
	<line fill="none" stroke="#000000" stroke-miterlimit="10" x1="319" y1="151.667" x2="313" y2="213.334"/>
	<line fill="none" stroke="#000000" stroke-miterlimit="10" x1="313" y1="213.334" x2="230.667" y2="213.334"/>
	<line fill="none" stroke="#000000" stroke-miterlimit="10" x1="230.667" y1="213.334" x2="203.667" y2="195.667"/>
	<line fill="none" stroke="#000000" stroke-miterlimit="10" x1="203.667" y1="195.667" x2="136.667" y2="195.667"/>
	<line fill="none" stroke="#000000" stroke-miterlimit="10" x1="136.667" y1="195.667" x2="138" y2="153.334"/>
	<line fill="none" stroke="#000000" stroke-miterlimit="10" x1="138" y1="153.334" x2="253" y2="151.667"/>
	<line fill="none" stroke="#000000" stroke-miterlimit="10" x1="138" y1="153.334" x2="138" y2="96"/>
	<line fill="none" stroke="#000000" stroke-miterlimit="10" x1="138" y1="96" x2="147.333" y2="96"/>
	<line fill="none" stroke="#000000" stroke-miterlimit="10" x1="147.333" y1="96" x2="147.333" y2="80.333"/>
	<line fill="none" stroke="#000000" stroke-miterlimit="10" x1="147.333" y1="80.333" x2="147.333" y2="61.333"/>
	<line fill="none" stroke="#000000" stroke-miterlimit="10" x1="147.333" y1="80.333" x2="63" y2="78"/>
	<line fill="none" stroke="#000000" stroke-miterlimit="10" x1="138" y1="153.334" x2="81.333" y2="151.667"/>
	<line fill="none" stroke="#000000" stroke-miterlimit="10" x1="81.333" y1="151.667" x2="81.333" y2="197.334"/>
	<line fill="none" stroke="#000000" stroke-miterlimit="10" x1="81.333" y1="197.334" x2="136.667" y2="195.667"/>
	<line fill="none" stroke="#000000" stroke-miterlimit="10" x1="81.333" y1="197.334" x2="81.333" y2="231.667"/>
	<line fill="none" stroke="#000000" stroke-miterlimit="10" x1="81.333" y1="231.667" x2="138" y2="231.667"/>
	<line fill="none" stroke="#000000" stroke-miterlimit="10" x1="138" y1="231.667" x2="136.667" y2="195.667"/>
	<line fill="none" stroke="#000000" stroke-miterlimit="10" x1="138" y1="231.667" x2="223.667" y2="231.667"/>
	<line fill="none" stroke="#000000" stroke-miterlimit="10" x1="223.667" y1="231.667" x2="223.667" y2="214.5"/>
	<line fill="none" stroke="#000000" stroke-miterlimit="10" x1="223.667" y1="214.5" x2="230.667" y2="213.334"/>
</g>
<g id="Scale_1m">
	<line fill="none" stroke="#45FF00" stroke-miterlimit="10" x1="99.25" y1="76.5" x2="103" y2="76.5"/>
</g>
<g id="Names">
	<text transform="matrix(1 0 0 1 295.625 147)" fill="#45FF00" font-family="'MyriadPro-Regular'" font-size="6">A-1754</text>
	<text transform="matrix(1 0 0 1 328.667 99.25)" fill="#45FF00" font-family="'MyriadPro-Regular'" font-size="6">A-1716</text>
	<text transform="matrix(1 0 0 1 118.625 100)" fill="#45FF00" font-family="'MyriadPro-Regular'" font-size="6">A-1406</text>
</g>
</svg>
