<?xml version="1.0" encoding="utf-8"?>
<!-- Generator: Adobe Illustrator 15.0.0, SVG Export Plug-In . SVG Version: 6.00 Build 0)  -->
<!DOCTYPE svg PUBLIC "-//W3C//DTD SVG 1.1//EN" "http://www.w3.org/Graphics/SVG/1.1/DTD/svg11.dtd">
<svg version="1.1" id="Layer_1" xmlns="http://www.w3.org/2000/svg" xmlns:xlink="http://www.w3.org/1999/xlink" x="0px" y="0px"
	 width="400px" height="240px" viewBox="0 0 400 240" enable-background="new 0 0 400 240" xml:space="preserve">
<g id="Layer_1_1_">
	
		<image overflow="visible" enable-background="new    " width="1530" height="1262" xlink:href="plan-ets-1a.jpg"  transform="matrix(0.24 0 0 0.24 16 -31)">
	</image>
</g>
<g id="Navigation">
	<g>
		<line fill="none" stroke="#FF0000" stroke-miterlimit="10" x1="82.167" y1="150.833" x2="82.167" y2="196.167"/>
		<line fill="none" stroke="#FF0000" stroke-miterlimit="10" x1="82.167" y1="150.833" x2="138.5" y2="150.833"/>
		<line fill="none" stroke="#FF0000" stroke-miterlimit="10" x1="138.5" y1="150.833" x2="138.5" y2="196.167"/>
		<line fill="none" stroke="#FF0000" stroke-miterlimit="10" x1="82.167" y1="196.167" x2="138.5" y2="196.167"/>
		<line fill="none" stroke="#FF0000" stroke-miterlimit="10" x1="82.167" y1="196.167" x2="82.167" y2="233.167"/>
		<line fill="none" stroke="#FF0000" stroke-miterlimit="10" x1="138.5" y1="198.167" x2="138.5" y2="233.167"/>
		<line fill="none" stroke="#FF0000" stroke-miterlimit="10" x1="82.167" y1="233.167" x2="138.5" y2="233.167"/>
		<line fill="none" stroke="#FF0000" stroke-miterlimit="10" x1="138.5" y1="198.167" x2="208.501" y2="198.167"/>
		<line fill="none" stroke="#FF0000" stroke-miterlimit="10" x1="138.5" y1="233.167" x2="223.834" y2="233.167"/>
		<line fill="none" stroke="#FF0000" stroke-miterlimit="10" x1="223.834" y1="233.167" x2="223.834" y2="209.167"/>
		<line fill="none" stroke="#FF0000" stroke-miterlimit="10" x1="208.501" y1="198.167" x2="223.834" y2="209.167"/>
		<line fill="none" stroke="#FF0000" stroke-miterlimit="10" x1="223.834" y1="209.167" x2="283.501" y2="209.167"/>
		<line fill="none" stroke="#FF0000" stroke-miterlimit="10" x1="138.5" y1="150.833" x2="138.5" y2="95.833"/>
		<line fill="none" stroke="#FF0000" stroke-miterlimit="10" x1="138.5" y1="95.833" x2="147.5" y2="95.833"/>
		<line fill="none" stroke="#FF0000" stroke-miterlimit="10" x1="147.5" y1="95.833" x2="147.5" y2="80.5"/>
		<line fill="none" stroke="#FF0000" stroke-miterlimit="10" x1="147.5" y1="80.5" x2="59.5" y2="80.5"/>
		<line fill="none" stroke="#FF0000" stroke-miterlimit="10" x1="147.5" y1="80.5" x2="147.5" y2="0"/>
		<line fill="none" stroke="#FF0000" stroke-miterlimit="10" x1="138.5" y1="150.833" x2="253.668" y2="150.833"/>
		<line fill="none" stroke="#FF0000" stroke-miterlimit="10" x1="147.5" y1="62.833" x2="255.501" y2="62.833"/>
		<line fill="none" stroke="#FF0000" stroke-miterlimit="10" x1="255.501" y1="62.833" x2="253.668" y2="150.833"/>
		<line fill="none" stroke="#FF0000" stroke-miterlimit="10" x1="253.668" y1="150.833" x2="274.167" y2="150.833"/>
		<line fill="none" stroke="#FF0000" stroke-miterlimit="10" x1="274.167" y1="150.833" x2="274.167" y2="161.5"/>
		<line fill="none" stroke="#FF0000" stroke-miterlimit="10" x1="274.167" y1="161.5" x2="287.501" y2="175.833"/>
		<line fill="none" stroke="#FF0000" stroke-miterlimit="10" x1="287.501" y1="175.833" x2="287.501" y2="192.167"/>
		<line fill="none" stroke="#FF0000" stroke-miterlimit="10" x1="287.501" y1="192.167" x2="280.834" y2="196.167"/>
		<line fill="none" stroke="#FF0000" stroke-miterlimit="10" x1="280.834" y1="196.167" x2="283.501" y2="209.167"/>
		<line fill="none" stroke="#FF0000" stroke-miterlimit="10" x1="274.167" y1="150.833" x2="316.501" y2="150.833"/>
		<line fill="none" stroke="#FF0000" stroke-miterlimit="10" x1="316.501" y1="150.833" x2="314.501" y2="186.167"/>
		<line fill="none" stroke="#FF0000" stroke-miterlimit="10" x1="287.501" y1="184" x2="314.501" y2="186.167"/>
		<line fill="none" stroke="#FF0000" stroke-miterlimit="10" x1="138.5" y1="196.167" x2="138.5" y2="198.167"/>
	</g>
	<g>
		<line fill="none" stroke="#FF0000" stroke-miterlimit="10" x1="82.167" y1="150.833" x2="82.167" y2="196.167"/>
		<line fill="none" stroke="#FF0000" stroke-miterlimit="10" x1="82.167" y1="150.833" x2="138.5" y2="150.833"/>
		<line fill="none" stroke="#FF0000" stroke-miterlimit="10" x1="138.5" y1="150.833" x2="138.5" y2="196.167"/>
		<line fill="none" stroke="#FF0000" stroke-miterlimit="10" x1="82.167" y1="196.167" x2="138.5" y2="196.167"/>
		<line fill="none" stroke="#FF0000" stroke-miterlimit="10" x1="82.167" y1="196.167" x2="82.167" y2="233.167"/>
		<line fill="none" stroke="#FF0000" stroke-miterlimit="10" x1="138.5" y1="198.167" x2="138.5" y2="233.167"/>
		<line fill="none" stroke="#FF0000" stroke-miterlimit="10" x1="82.167" y1="233.167" x2="138.5" y2="233.167"/>
		<line fill="none" stroke="#FF0000" stroke-miterlimit="10" x1="138.5" y1="198.167" x2="208.501" y2="198.167"/>
		<line fill="none" stroke="#FF0000" stroke-miterlimit="10" x1="138.5" y1="233.167" x2="223.834" y2="233.167"/>
		<line fill="none" stroke="#FF0000" stroke-miterlimit="10" x1="223.834" y1="233.167" x2="223.834" y2="209.167"/>
		<line fill="none" stroke="#FF0000" stroke-miterlimit="10" x1="208.501" y1="198.167" x2="223.834" y2="209.167"/>
		<line fill="none" stroke="#FF0000" stroke-miterlimit="10" x1="223.834" y1="209.167" x2="283.501" y2="209.167"/>
		<line fill="none" stroke="#FF0000" stroke-miterlimit="10" x1="138.5" y1="150.833" x2="138.5" y2="95.833"/>
		<line fill="none" stroke="#FF0000" stroke-miterlimit="10" x1="138.5" y1="95.833" x2="147.5" y2="95.833"/>
		<line fill="none" stroke="#FF0000" stroke-miterlimit="10" x1="147.5" y1="95.833" x2="147.5" y2="80.5"/>
		<line fill="none" stroke="#FF0000" stroke-miterlimit="10" x1="147.5" y1="80.5" x2="59.5" y2="80.5"/>
		<line fill="none" stroke="#FF0000" stroke-miterlimit="10" x1="147.5" y1="80.5" x2="147.5" y2="0"/>
		<line fill="none" stroke="#FF0000" stroke-miterlimit="10" x1="138.5" y1="150.833" x2="253.668" y2="150.833"/>
		<line fill="none" stroke="#FF0000" stroke-miterlimit="10" x1="147.5" y1="62.833" x2="255.501" y2="62.833"/>
		<line fill="none" stroke="#FF0000" stroke-miterlimit="10" x1="255.501" y1="62.833" x2="253.668" y2="150.833"/>
		<line fill="none" stroke="#FF0000" stroke-miterlimit="10" x1="253.668" y1="150.833" x2="274.167" y2="150.833"/>
		<line fill="none" stroke="#FF0000" stroke-miterlimit="10" x1="274.167" y1="150.833" x2="274.167" y2="161.5"/>
		<line fill="none" stroke="#FF0000" stroke-miterlimit="10" x1="274.167" y1="161.5" x2="287.501" y2="175.833"/>
		<line fill="none" stroke="#FF0000" stroke-miterlimit="10" x1="287.501" y1="175.833" x2="287.501" y2="192.167"/>
		<line fill="none" stroke="#FF0000" stroke-miterlimit="10" x1="287.501" y1="192.167" x2="280.834" y2="196.167"/>
		<line fill="none" stroke="#FF0000" stroke-miterlimit="10" x1="280.834" y1="196.167" x2="283.501" y2="209.167"/>
		<line fill="none" stroke="#FF0000" stroke-miterlimit="10" x1="274.167" y1="150.833" x2="316.501" y2="150.833"/>
		<line fill="none" stroke="#FF0000" stroke-miterlimit="10" x1="316.501" y1="150.833" x2="314.501" y2="186.167"/>
		<line fill="none" stroke="#FF0000" stroke-miterlimit="10" x1="287.501" y1="184" x2="314.501" y2="186.167"/>
		<line fill="none" stroke="#FF0000" stroke-miterlimit="10" x1="138.5" y1="196.167" x2="138.5" y2="198.167"/>
	</g>
</g>
<g id="Scale_1m">
	<line fill="none" stroke="#45FF00" stroke-miterlimit="10" x1="99.25" y1="76.5" x2="103" y2="76.5"/>
</g>
<g id="Names">
	<text transform="matrix(1 0 0 1 66.167 243.833)" fill="#00FF00" font-family="'MyriadPro-Regular'" font-size="8">1240</text>
	<text transform="matrix(1 0 0 1 63.167 225.167)" fill="#00FF00" font-family="'MyriadPro-Regular'" font-size="8">1245</text>
	<text transform="matrix(1 0 0 1 61.5005 212.501)" fill="#00FF00" font-family="'MyriadPro-Regular'" font-size="8">1246</text>
	<text transform="matrix(1 0 0 1 61.5005 194.167)" fill="#00FF00" font-family="'MyriadPro-Regular'" font-size="8">1248</text>
	<text transform="matrix(1 0 0 1 59.5005 180.167)" fill="#00FF00" font-family="'MyriadPro-Regular'" font-size="8">1250</text>
	<text transform="matrix(1 0 0 1 109.5005 137.5)" fill="#00FF00" font-family="'MyriadPro-Regular'" font-size="8">1400</text>
	<text transform="matrix(1 0 0 1 85.5005 163.5)" fill="#00FF00" font-family="'MyriadPro-Regular'" font-size="8">1340</text>
	<text transform="matrix(1 0 0 1 104.8335 161.5)" fill="#00FF00" font-family="'MyriadPro-Regular'" font-size="8">1350</text>
	<text transform="matrix(1 0 0 1 121.8335 161.5)" fill="#00FF00" font-family="'MyriadPro-Regular'" font-size="8">1314</text>
	<text transform="matrix(1 0 0 1 121.8335 173.5)" fill="#00FF00" font-family="'MyriadPro-Regular'" font-size="8">1312</text>
	<text transform="matrix(1 0 0 1 121.8335 188.167)" fill="#00FF00" font-family="'MyriadPro-Regular'" font-size="8">1310</text>
	<text transform="matrix(1 0 0 1 103.5005 192.167)" fill="#00FF00" font-family="'MyriadPro-Regular'" font-size="8">1350</text>
	<text transform="matrix(1 0 0 1 85.5005 190.5)" fill="#00FF00" font-family="'MyriadPro-Regular'" font-size="8">1352</text>
	<text transform="matrix(1 0 0 1 63.167 139.5)" fill="#00FF00" font-family="'MyriadPro-Regular'" font-size="8">1410</text>
	<text transform="matrix(1 0 0 1 85.5005 212.501)" fill="#00FF00" font-family="'MyriadPro-Regular'" font-size="8">1242</text>
	<text transform="matrix(1 0 0 1 85.5005 230.833)" fill="#00FF00" font-family="'MyriadPro-Regular'" font-size="8">1236</text>
	<text transform="matrix(1 0 0 1 101.125 205.166)" fill="#00FF00" font-family="'MyriadPro-Regular'" font-size="8">1262</text>
	<text transform="matrix(1 0 0 1 113.5005 212.501)" fill="#00FF00" font-family="'MyriadPro-Regular'" font-size="8">1260</text>
	<text transform="matrix(1 0 0 1 113.5005 228.167)" fill="#00FF00" font-family="'MyriadPro-Regular'" font-size="8">1234</text>
	<text transform="matrix(1 0 0 1 113.5005 101.167)" fill="#00FF00" font-family="'MyriadPro-Regular'" font-size="8">1406</text>
</g>
<text transform="matrix(1 0 0 1 144.5005 212.501)" fill="#00FF00" font-family="'MyriadPro-Regular'" font-size="8">1226</text>
<text transform="matrix(1 0 0 1 165.5005 212.501)" fill="#00FF00" font-family="'MyriadPro-Regular'" font-size="8">1222</text>
<text transform="matrix(1 0 0 1 182.834 212.501)" fill="#00FF00" font-family="'MyriadPro-Regular'" font-size="8">1214</text>
<text transform="matrix(1 0 0 1 203.834 221.167)" fill="#00FF00" font-family="'MyriadPro-Regular'" font-size="8">1200</text>
<text transform="matrix(1 0 0 1 144.5005 160.501)" fill="#00FF00" font-family="'MyriadPro-Regular'" font-size="8">1320</text>
<text transform="matrix(1 0 0 1 154.5005 173.5)" fill="#00FF00" font-family="'MyriadPro-Regular'" font-size="8">1304</text>
<text transform="matrix(1 0 0 1 165.5005 180.167)" fill="#00FF00" font-family="'MyriadPro-Regular'" font-size="8">1302</text>
<text transform="matrix(1 0 0 1 182.834 180.167)" fill="#00FF00" font-family="'MyriadPro-Regular'" font-size="8">1300</text>
<text transform="matrix(1 0 0 1 203.834 168.667)" fill="#00FF00" font-family="'MyriadPro-Regular'" font-size="8">1172</text>
<text transform="matrix(1 0 0 1 267.834 173.5)" fill="#00FF00" font-family="'MyriadPro-Regular'" font-size="8">1150</text>
<text transform="matrix(1 0 0 1 228.168 139.5)" fill="#00FF00" font-family="'MyriadPro-Regular'" font-size="8">1504</text>
<text transform="matrix(1 0 0 1 230.834 120)" fill="#00FF00" font-family="'MyriadPro-Regular'" font-size="8">1502</text>
<text transform="matrix(1 0 0 1 232.834 102.501)" fill="#00FF00" font-family="'MyriadPro-Regular'" font-size="8">1500</text>
<text transform="matrix(1 0 0 1 205.167 139.5)" fill="#00FF00" font-family="'MyriadPro-Regular'" font-size="8">1506</text>
<text transform="matrix(1 0 0 1 181.1675 137.5)" fill="#00FF00" font-family="'MyriadPro-Regular'" font-size="8">1508</text>
<text transform="matrix(1 0 0 1 263.916 142.168)" fill="#00FF00" font-family="'MyriadPro-Regular'" font-size="8">1752</text>
<text transform="matrix(1 0 0 1 260.5 123.333)" fill="#00FF00" font-family="'MyriadPro-Regular'" font-size="8">1760</text>
<text transform="matrix(1 0 0 1 260.5 105.5005)" fill="#00FF00" font-family="'MyriadPro-Regular'" font-size="8">1732</text>
<text transform="matrix(1 0 0 1 291.168 142.168)" fill="#00FF00" font-family="'MyriadPro-Regular'" font-size="8">1754</text>
<text transform="matrix(1 0 0 1 302.834 144.834)" fill="#00FF00" font-family="'MyriadPro-Regular'" font-size="8">1750</text>
<text transform="matrix(1 0 0 1 313.5 137.5)" fill="#00FF00" font-family="'MyriadPro-Regular'" font-size="8">1700</text>
<text transform="matrix(1 0 0 1 284.168 163.5)" fill="#00FF00" font-family="'MyriadPro-Regular'" font-size="8">1192</text>
<text transform="matrix(1 0 0 1 280.834 117.167)" fill="#00FF00" font-family="'MyriadPro-Regular'" font-size="8">1740</text>
</svg>
